<?xml version="1.0" encoding="UTF-8"?>
<svg xmlns="http://www.w3.org/2000/svg" id="uuid-e25e834b-72b5-43f3-b2d0-93b98d55ffb8" data-name="Ebene 1" viewBox="0 0 171.97 178.74" width="100" height="104">
  <defs>
    <style>
      .uuid-a56a9c4b-08ad-4022-9ae1-b4a31fa027e7 {
        fill: #009fe3;
      }

      .uuid-4952f5af-710b-4548-94c0-f211fe423dba {
        fill: #3c3c3b;
      }
    </style>
  </defs>
  <g>
    <path class="uuid-4952f5af-710b-4548-94c0-f211fe423dba" d="m30.98,49.94c.1-.09.2-.18.29-.28.39-.41.79-.82,1.19-1.24-.02-.2-.02-.4.01-.6-.51.7-1.01,1.41-1.49,2.12Z"/>
    <path class="uuid-4952f5af-710b-4548-94c0-f211fe423dba" d="m72.08,47.8c-.51.29-1.01.58-1.38.96-.27.28-.28.62-.58.82-.06-.14-.24-.01-.4.07-.38.37-.9.52-1.37.81-.15.09-.28.26-.43.37-.2.14-.34.15-.49.27-.61.46-1.12.97-1.5,1.46.05.27.36-.02.45.18.91-.62,2.14-1.29,3-2.08.24-.22.33-.54.68-.68.16-.17.28-.04.4-.07.1-.02.15-.08.26-.11.42-.13.81-.06,1.26-.45.5-.45.44-1.28.12-1.55Z"/>
    <path class="uuid-4952f5af-710b-4548-94c0-f211fe423dba" d="m29.3,50.1c.14.17.32.36.33.58.17,0,.34-.05.47.02.16-.32-.1-.56-.28-.79-.17-.21-.48-.31-.56-.52.06-.15.12-.3.15-.46.87-.85,2.34-1.65,3.55-2.6.3-.24.58-.57.91-.84.22-.18.47-.31.69-.48.06-.04.1-.08.15-.11-.03.03-.06.07-.09.1-.07.09-.14.18-.22.27.34-.21.69-.4,1.06-.58-.04,0-.07-.01-.1-.01-.58.01-.73.04-1.34.51-.22.17-.47.3-.69.48-.33.27-.61.6-.91.84-1.21.95-2.68,1.75-3.55,2.6-.03.15-.1.3-.15.46.07.21.39.32.56.52Z"/>
    <path class="uuid-4952f5af-710b-4548-94c0-f211fe423dba" d="m35.28,42.1c.11-.08.27-.29.4-.42.28-.26.62-.45.75-.73.83-.33,1.17-.88,1.8-1.18.15-.07.33-.04.51-.07.09-.02.18-.11.26-.11.06,0,.11.08.17.09.2.04.63.09.88.16.34.1.78.36,1.31.14.16.15.4.13.59.22.21-.08.46.03.72-.08.05-.02.55-.31.57-.33.18-.15.13-.37.34-.51-.23-.08-.02-.36-.09-.5-.14-.25-.62-.24-.76-.66-.32-.06-.78-.21-.76-.66.45-.46.96-1.07,1.66-1.57.11-.08.3-.13.42-.22.56-.41,1.32-.92,1.84-1.28.62-.42,1.44-1.18,1.95-1.28.3.04.56.13.83.26.25.12.47.32.79.36.19.03.41-.06.57.03.16-.31-.1-.56-.28-.79-.17-.21-.48-.31-.56-.52.06-.15.12-.3.15-.46.67-.65,1.7-1.28,2.69-1.97-6.74,2.9-12.66,7.17-17.43,12.47.08-.06.17-.13.26-.19.1-.07.34-.16.42-.22Z"/>
    <path class="uuid-4952f5af-710b-4548-94c0-f211fe423dba" d="m36.11,43.91c.17,0,.4-.12.59-.13-.11-.18.22-.38.52-.57-.21-.24-.65.44-.91.14,0-.18.21-.38.52-.57-.1-.18-.36.02-.49-.08-.05-.13-.13-.17-.28-.09-.33.31-.8.42-1.34.86-.03.03-.1.21-.17.26-.03.02-.15-.01-.26.11-.18.19-.42.51-.35.66.54.17,1.49.27,2.17-.59Z"/>
    <path class="uuid-4952f5af-710b-4548-94c0-f211fe423dba" d="m39.21,89.61c.08-.06.2-.2.14-.25-.21,0-.43.11-.67.35.14.16.39.01.53-.1Z"/>
    <path class="uuid-4952f5af-710b-4548-94c0-f211fe423dba" d="m13.85,77.13c.36-.35.28-.66.43-1,0,.12.4-.2.29-.23-.2-.22-.45-.36-.84-.36-.28.19-.54.32-.76.38.42-.34.03-.6.47-.95.35-.29.44.11.79-.18,0-.38-.63-.22-.99-.1-.15-.12-.11-.26-.16-.38-.3-.1-.61-.21-.95-.2-.92.56-1.79,1.22-2.54,1.91-.27.25-.45.54-.71.77-.07.07-.16.05-.18.07-.09.06-.08.13-.19.22-.44.35-.73.58-.89.84-.65.2-1.25.99-1.38,1.44-.09-.05-.26.14-.28-.07-.37.43-.88.58-.9.99-.19-.04-.49.2-.69.32-.28.18-.62.39-.84.59-.22.19-.34.45-.56.66-.15.14-.32.18-.48.3-.42.33-.7.73-.97,1.05.1.09.12.19.09.29.23-.38.44-.25.73-.43.13-.15.17-.28.27-.43.2-.03.37.03.61-.11-.05-.11.31-.27.3-.38.11.16.32.07.5.05.37-.34.31-.63.9-.99-.04-.11.11-.27.27-.43.3-.3.83-.64.96-.75,0-.3.13-.31.27-.58.06.21.22.13.35.16.27-.18.53-.3.84-.59.11-.21.19-.42.45-.65.19-.08.32-.03.54-.21.09-.33.44-.68.65-1.02.14.35.61-.16.86-.09.38.08.39.58.61.84.11-.01.22-.02.32-.03.1.32.36.32.48.35.1.02.11.1.21.13.14.04.34.03.42.11.28.28.07.87.56,1.09.27-.13.17-.13.44-.35-.23-.24-.32-.5-.43-.76.36-.27.06-.47.39-.74.14-.2-.23-.04-.06-.24.28-.16.47-.05.8-.33Z"/>
    <path class="uuid-4952f5af-710b-4548-94c0-f211fe423dba" d="m.26,79.02c-.11.12-.09.27-.12.37-.04.15-.29.35-.02.45.37-.16,1.05-.73,1.33-1.04.18-.02.37-.07.59-.2-.57.17-1.16.31-1.78.41Z"/>
    <path class="uuid-4952f5af-710b-4548-94c0-f211fe423dba" d="m15.08,68.14c.14-.12.24-.32.37-.44.1-.09.19-.08.26-.13.14-.1.12-.19.26-.28.11-.07.36-.14.51-.25.88-.66,1.72-1.67,2.76-2.24.28-.18.06-.31.34-.49.48-.18,1.07-.81,1.37-1.14.22-.58-.27-.68-.69-.63-.24-.31-.65-.18-.99-.25,0-.13.13-.32-.1-.29-.31.13.07.19-.12.31-.23-.2-.9.15-.84-.36.41-.19.76-.24,1.01-.2.1.01.2.11.32.12.11.01.23-.04.32-.03.11.01.2.1.32.12.08.01.25-.05.32-.03.06.01.05.12.1.14.04.01.16-.04.21-.02.1.04.17.17.28.22.38.19.82.04,1.28-.27-.55-.13-1.04-.48-1.35-1.01-.51.13-1,.26-1.45.41-.37.12-.71.12-1.02.07-.4.67-.99,1.14-1.69,1.49,0,0,0,0,0,0,.43.77.47,1.76-.25,2.6-1.03,1.2-2.01,2.45-3,3.69.22-.18.45-.37.7-.57.24-.19.54-.33.77-.53Z"/>
    <path class="uuid-4952f5af-710b-4548-94c0-f211fe423dba" d="m8,81.64c-.08-.12.03-.26-.21-.13.08.13-.18.29-.38.44-.1,0-.19-.05-.24-.18-.55.49-.82.95-1.16,1.42.23.34.45.7.99.25.12-.1-.05-.16.05-.26.36-.31.5-.06.83-.29.42-.43.34-.8.83-1.24-.08-.11-.16-.22-.24-.33-.2.21-.3.16-.47.3Z"/>
    <path class="uuid-4952f5af-710b-4548-94c0-f211fe423dba" d="m37.71,88.8c-.09-.1-.15.1-.16.13-.07-.17-.17-.09-.26.01.06.2.16-.09.22.02.13.23.29.08.42.34.17-.1.13-.21,0-.34-.11.1-.22.19-.3.05-.04-.14.25-.04.1-.22Z"/>
    <path class="uuid-4952f5af-710b-4548-94c0-f211fe423dba" d="m148.53,27.71v39.49h-78.7v20.01h29.19l-.03.02v.36c-3.66,10.35-12.74,16.76-25.16,16.76-11.67,0-21.28-6.53-25.63-16.38-.06.05-.12.11-.18.16-.27.22-.58.35-.84.56-.49.4-.87.94-1.45,1.06-.08-.07-.07-.13-.09-.2-.07-.22,0-.19.19-.43.13-.16.43-.39.65-.54.13-.09.31-.13.43-.22.38-.26.74-.59,1.09-.85-.48-1.14-.89-2.32-1.23-3.54-.02.07-.03.13-.09.08-.18.06-.41-.04-.63-.1-.05-.01-.1,0-.15-.01-.05-.01-.08-.07-.14-.09-.14-.03-.27-.05-.44-.12-.17-.06-.48-.15-.73-.22-.37-.1-.77-.31-1.19-.45-.04-.01-.11,0-.15-.01-.05-.02-.09-.07-.14-.09-.08-.03-.22,0-.3-.03-.06-.02-.09-.07-.14-.09-.19-.07-.49-.08-.72-.29.06-.18.24-.35.16-.54-.11-.1-.44,0-.57.13-.05.05-.06.12-.1.22-.03.09-.08.15-.1.22-.08.26,0,.55-.18.69.11.23.09.46.08.68.07.19.22.28.26.4-.07.09-.13,0-.18-.05-.07.09-.13.06-.2.09-.02.11.34.25.07.42.08.12.2-.23.26-.01.14.23-.23.06-.32.27-.09-.15.04-.27-.07-.42-.15-.02-.17.14-.24.2-.09.07-.26.04-.36.23-.12-.09.01-.15-.05-.23-.25.3-.46.09-.68.08-.16.05-.28.31-.37.38-.09.07-.23.05-.31.12-.2.16-.44.39-.62.58-.24.26-.35.63-.68.83-.08-.07-.18,0-.26.01-.11-.45-.22-.89-.14-1.32-.08-.14-.08-.3-.11-.46,0-.06.04-.16.02-.22-.02-.09-.11-.15-.13-.24,0-.04.02-.09.01-.15-.02-.15-.02-.39-.02-.6,0-.12-.05-.23-.04-.38,0-.03.05-.08.05-.11,0-.23-.06-.46-.04-.71-.13-.11-.13-.21-.19-.32.03-.21.06-.42.1-.63.43-.43.99-.75,1.45-1.13.35-.29.65-.64,1.02-.91.46-.34.94-.58,1.32-.96.05-.05.11-.16.17-.21.48-.4,1.29-.98,1.83-1.51.09-.09.15-.2.25-.28.13-.1.26-.11.39-.19.27-.16.49-.43.8-.52.29.11.37.17.47.57.01.06,0,.12.02.19.06.17.16.48.05.64.07.17.12.37.1.53-.02.16-.13.28-.19.43-.13.35-.26.7-.32,1.02-.25.25-.46.5-.37.79.13.1.45.07.34.33.23-.09,0-.22.14-.32.16-.03.33-.09.48.08-.12.1-.24.2-.36.3.04.07.09.22.19.32.08.07.18.05.29.1.14.07.22.32.36.18.12.11-.02.2.05.3.14.04.13.21.23.36.18.27.38.52.3.78.14.24.31.48.53.72.01,0,.02-.01.02-.02-.46-1.85-.76-3.77-.87-5.77.03-.02.05-.03.08-.05.02-.19-.03-.32-.1-.41-.02-.43-.03-.87-.03-1.31,0-1.6.12-3.17.35-4.69-.05,0-.09.02-.12.04-.14.1-.23.28-.37.38-.09.06-.2.1-.28.16-.11.09-.19.24-.29.31-.24.16-.48.23-.7.31-.2.16-.09.34-.27.5-.08.01-.17.11-.24.13-.03,0-.09-.05-.11-.05-.22.06-.45-.03-.77-.11-.07-.02-.18,0-.22-.02-.1-.04-.2-.16-.32-.22-.26-.12-.62-.08-.9-.35-.04-.18.18-.2.29-.31.21-.19.32-.39.6-.43.13.07.25.17.42.26,0,0,.12.08.14.09.23.06.33-.04.57-.06.21.07.12.34.37.45.34-.22,1-.99,1.43-.91.1-.06.15-.14.17-.21.1-.13.17.1.27-.09.04-.07.05-.14.02-.22-.12-.14-.29.19-.42.15-.13-.15-.14-.08-.2-.24.07-.12.24-.27.38-.11.24-.17.46-.19.7-.32.09-.49.18-.97.29-1.45-.13-.08-.26-.16-.39-.23-.15.1-.28.03-.43.22.07.32.34-.05.39.22,0,.03-.04.15-.05.18-.1.2-.36.3-.56.39.02.1.18.22.05.3-.11.08-.21.14-.31.12-.11.13-.18-.19-.3-.03-.19.16-.38.31-.57.47-.2.06-.4.06-.63.31-.19.02-.36-.09-.56-.02-.29.21-.65.26-.84.56-.17.1-.32-.05-.49.07-.14.33-.54.42-.72.45-.12.25-.2.5-.33.75.25.35.31.68.5,1.02.16.08.29.09.46.23.08.07.14.23.28.25-.07.23-.12.43-.32.6-.08.07-.19.07-.28.16-.13.14-.23.32-.38.45-.34.3-.92.68-1.24.89-.16.11-.31.23-.44.29-.12.06-.24.04-.34.08-.33.14-.47.37-.62.58-.08.11-.17.26-.26.35-.39.43-.79.57-1.24.89-.37.27-.64.64-1.02.91-.1.07-.24.08-.35.15-.45.28-.79.72-1.26,1.04-.98,0-1.87-1.05-2.91-.39-.29.77.84.99,1.02,1.41,0,.02-.05.08.03.11-.17.32-.48.56-.75.83-.25.25-.51.52-.82.74-.53.37-1.23.6-1.45,1.13-.23-.06-.49.12-.71-.03-.04-.22-.24-.45-.13-.65-.13.24-.23.14-.4-.08-.07-.18.3-.32.27-.5-.15-.16-.33.06-.47-.16,0-.15.4-.26.19-.43-.29.18-.56.17-.81-.08-.07-.11.05-.19.03-.3.18-.12-.13-.08.02-.22.08-.21.27-.24.27-.5-.1-.21-.23-.19-.35-.26-.04-.15.18-.28.04-.44-.07-.07-.15,0-.22-.02-.08-.02-.13-.06-.22-.1-.26-.1-.59-.28-.79-.37-.21-.1-.46-.05-.53-.31-.26.14-.12.31-.38.45.04.65.43,1.34.33,1.97.25-.06.26.13.49.35.17-.04.33-.12.51-.21-.13-.22-.32-.45-.04-.71.33,0,.01.24.29.44.14-.04,0-.29.17-.21.04.17.02.33,0,.48-.13.04-.14.17-.21.24-.07.07-.31.09-.17.21.07.21.19-.13.26-.01.39.3.55.72.84,1.01.26.27.67.35.87.72-.11.29-.25.52-.52.77-.18.17-.46.31-.68.5-.28.23-.48.5-.7.64-.13.09-.29.13-.43.22-.63.41-1.22.94-1.85,1.39-.25-.07-.55-.2-.73-.22-.05,0-.09-.08-.14-.09,0,0-.01.01-.02.02.29,1.2.62,2.38,1,3.54.23-.15.46-.26.7-.3.11.14.09.3.11.46.02.15.03.23.07.42.06.28.12.6.33.89-.1.28.2.59.1.87.25.31.13.63.54.99.17.15.61.19.83.34.14.15.09.28.15.42.02.04,0,.07.03.11,0-.06.09-.12.05-.18.3.01.6-.02.92-.29-.13-.32-.34.16-.48-.08-.18-.18-.07-.33,0-.49-.08-.27-.11-.55-.14-.84,0-.07-.05-.14-.05-.23,0-.05.06-.13.05-.18-.02-.14-.1-.25-.11-.38-.01-.13,0-.28,0-.41-.02-.26-.04-.51-.11-.8-.03-.12-.1-.26-.11-.38-.02-.15.05-.36.05-.52,0-.19,0-.36-.02-.53-.15-.18-.31-.35-.36-.52.25-.72,1.2-1.33,2.02-2.01.37-.31.71-.63,1.05-.87.16-.11.35-.18.51-.29.66-.44,1.25-1.01,1.86-1.47.25-.19.46-.33.69-.57.17-.17.37-.26.56-.39.44-.3.83-.73,1.22-.67.22.09.21.43.24.62.34.32.35.69.42,1.09.04.23.06.46.08.68.01.1.18.43.24.62.05.17.31.44.42.68.05.11.06.31.15.42.06.07.11.1.21.17.22.15.42.33.69.18.04.19.16.24.3.37.12.04.23.22.36.11.09.08.12.16.05.23.06.12.11-.25.24-.13.11-.12.2.02.3-.05.12.19,0,.35-.05.52.2.06.24-.31.4-.26.12.11-.02.2.05.3.37,0,.74-.02.98-.47-.15-.17-.34.13-.49.07-.21-.08-.08-.22-.19-.39-.24-.03-.1.34-.29.31-.12-.2-.27-.08-.39-.22.15-.31.51-.33.75-.41.13.1-.1.16.09.27.07.08.15-.04.22.1.11-.16-.14-.36.05-.52.14-.15.27-.2.39-.19.15.23-.21.4-.02.63.13.09.06-.14.2-.17.11.2.26-.03.38-.04.23-.02.45.13.67.06.24-.29.5-.5.79-.45.08-.1-.04-.23.14-.32.03.37.31-.37.52.05.07-.18.33-.34.24-.54.07-.07.13-.02.2-.09.08-.13.07-.27.15-.4.14-.16.26-.15.4-.26.15-.18-.1-.41.2-.58.14.11.28.21.42.34.15.17.15-.21.26-.01.12.29-.23.41-.51.62-.24.19-.34.38-.59.35-.19.09-.02.22-.22.32-.13.13-.36.17-.51.29-.28.2-.48.52-.78.71-.19.12-.41.17-.68.42-.16.16-.31.42-.59.35-.08.13-.08.18-.18.28-.11.12-.27.15-.36.23-.12.11-.09.26-.22.32-.13.04-.27.2-.38.04-.11.33-.51.51-.83.82-.14.14-.26.33-.42.48-.14.14-.36.28-.53.44-.3.29-.41.45-.74.34-.21-.35-.25-.74-.31-1.11-.02-.11-.08-.25-.08-.34-.01-.32.16-.65.02-.97.04-.1,0-.2.18-.28-.15-.22-.34-.1-.52-.05-.11.28,0,.57.03.86.04.28.08.56.07.83.17.22.31.61.11.8-.11.1-.39.05-.6.02-.03,0-.04-.08-.07-.08-.02,0-.06.07-.08.07-.19-.03-.46-.19-.69-.25-.05-.02-.1,0-.15-.01-.12-.03-.26-.07-.44-.12-.06-.02-.08-.08-.14-.09-.26-.03-.66-.24-.98-.35-.06-.02-.08-.08-.14-.09-.02,0-.1.03-.11.03-.1-.04-.17-.13-.28-.18-.21-.08-.55-.15-.8-.23-.21.16-.55.2-.71.38-.19.23-.12.44-.1.7.12.13.24.2.34.33.2.24.27.38.54.57.12.08.24.2.35.26.19.1.43.09.62.17.06.03.15.14.21.17.16.09.41.14.6.32.29.1.61-.17.88.16.03.52-.86,1.01-1.45,1.54-.08.07-.13.17-.21.24-.29.28-.73.49-1.08.76-.47.35-.86.71-1.29,1-.08.06-.15.05-.2.09-.03.03-.02.1-.09.14-.11.07-.28.11-.39.19-.09.07-.07.13-.13.17-.11.1-.4.21-.59.35-.17.13-.32.28-.49.4-.45.31-.83.54-1.25.94.5.94,1.04,1.86,1.59,2.77.11-.06.22-.12.33-.17.06,0,.12.09.18.05.07.08-.07.14.05.23-.09.14-.16.28-.23.42,8.99,14.17,25.1,23.39,43.93,23.39,9.52,0,18.15-2.28,25.45-6.36v4.29h23.68v-36.21h25.87v35.79h23.44V27.71h-23.44Zm-104.2,52.08c-.08-.08-.07-.16.02-.22.03.04.07.08.1.12-.04.03-.08.07-.12.1Zm-18.25,2.52s-.04-.05-.07-.08c.06-.07.1-.02.16-.06.02.03.04.05.07.08-.06.07-.1.02-.16.06Zm7.93,16.37s-.02.06-.05.11c-.04.06-.16.15-.21.24-.04.08,0,.18-.06.26-.08.11-.29.28-.45.44-.45.43-1.1.96-1.63,1.08-.18.27-.48.72-.87.85-.28-.31-.27-.6-.33-.89.5-.3,1.01-.89,1.58-1.31.64-.47,1.34-.81,1.94-1.2.09-.12.15.01.23-.05.02.04,0,.07.03.11.16.19-.14.25-.18.36Zm5.46-3.63c-.12.13-.28.17-.44.29-.1.08-.18.21-.29.31-.08.07-.2.1-.32.19-.08.07-.13.19-.21.24-.63.42-1.44.43-1.94.79-.25.17-.33.38-.53.51-.16-.18-.17-.34-.21-.51.75-.52,1.63-1.41,2.47-1.97.54-.36,1.05-.71,1.61-.78.02.03.04.05.07.08.09.27.03.61-.19.84Zm4.06-3.76c-.14.14-.19.28-.26.42-.13.05-.22,0-.34.08-.12.07-.16.23-.25.28-.15.07-.23.02-.38.04-.13.3-.46.4-.62.58-.29.42-.04.89-.13,1.33.13.18.22.14.27.32-.42.52-.34.82.19,1.14.02.01.05-.04.07,0,0,0-.05.05,0,.07.15.09.35.08.43.19.11.14.07.32.11.46-.06.16-.15-.02-.26-.06-.15-.06-.37-.02-.42-.26-.11-.08-.27,0-.4-.08-.04-.02-.06-.11-.1-.12-.16-.06-.36-.05-.5-.2-.03-.03-.13-.21-.19-.32-.13-.22-.16-.37-.21-.58-.08-.09-.16-.19-.23-.28,0-.27-.21-.57-.22-.84.35-.4.8-.73,1.22-1,.09-.06.21-.06.31-.12.13-.08.22-.21.37-.3.08-.05.23-.06.31-.12.26-.18.47-.43.73-.6.3-.2.61-.3.9-.47.04.05.09.11.13.16-.06.26-.34.14-.51.29Z"/>
    <path class="uuid-4952f5af-710b-4548-94c0-f211fe423dba" d="m43.7,25.12s-.17.03-.15.11c.08-.06.17-.01.15-.11Z"/>
    <path class="uuid-4952f5af-710b-4548-94c0-f211fe423dba" d="m58.15,28.42c-.03.1-.09.18-.14.27.05,0,.1-.02.15-.03.1.1.21.16.33.21.07-.18.14-.35.22-.53-.05-.03-.11-.05-.15-.09,0-.15.27-.26.4-.42.06-.07.09-.16.14-.25-.52.14-1.04.27-1.55.43.03.03.06.08.08.14.17.09.41.03.51.28Z"/>
    <path class="uuid-4952f5af-710b-4548-94c0-f211fe423dba" d="m55.1,33.2c.15.14.01.3-.05.45.58-.28.39-.56.05-.45Z"/>
    <path class="uuid-4952f5af-710b-4548-94c0-f211fe423dba" d="m85.22,16.51c-.24.39-.44.78-.04,1.15.32-.09.62-.13,1.05-.45.2-.64.07-.84-.44-1.03-.14-.05-.36-.17-.45-.18-.07,0-.18.1-.26.11-.12.01-.19-.17-.35-.04-.26.46.35.17.49.43Z"/>
    <path class="uuid-4952f5af-710b-4548-94c0-f211fe423dba" d="m79.1,22.16c-.31-.54-1.02-.55-1.6-.08-.55.44-.42.99-.35,1.36.48-.08,1.62-.81,1.95-1.28Z"/>
    <path class="uuid-4952f5af-710b-4548-94c0-f211fe423dba" d="m81.72,20.4c.22-.19.68-.49.46-.67-.37.18-.82.6-1.29.76-.06.19-.35.38-.2.56.25-.07.73-.38,1.03-.64Z"/>
    <path class="uuid-4952f5af-710b-4548-94c0-f211fe423dba" d="m88.26,7.54c.12.04.28.01.38.08.53-.37,1.11-.3,1.51-.76-.01-.02-.03-.03-.04-.05.08-.06.17-.12.24-.2-.24-.44-.86-.04-1.23-.19-.48.32-.93.64-1.17.95,0,.01.01.02.02.02-.08.08-.16.16-.22.24.09.16.37-.12.51-.07Z"/>
    <path class="uuid-4952f5af-710b-4548-94c0-f211fe423dba" d="m86.58,8.62c.17-.16.27-.31.21-.46-.24-.04-.51.14-.8.36-.15.32-.29.65-.44.97.41-.29.92-.59,1.03-.87Z"/>
    <path class="uuid-4952f5af-710b-4548-94c0-f211fe423dba" d="m66.42,23.32c.21-.18-.12-.33.01-.5.17.01.33-.07.49-.15-.31-.03-.61-.06-.92-.09-.33.18-.67.48-.73.69.25.3.6.39,1.14.05Z"/>
    <path class="uuid-4952f5af-710b-4548-94c0-f211fe423dba" d="m65.31,0c-.08.06-.16.01-.15.11.03.05.17-.03.15-.11Z"/>
    <path class="uuid-4952f5af-710b-4548-94c0-f211fe423dba" d="m55.4,30.54c.12.43.51.26.65.67.16.1.15-.2.38-.27.22.12-.15.27-.08.4.42-.22.34-.41.49-.62.36-.17.71-.41,1-.69,0,0-.02,0-.03-.01-.38.25-.66.31-.96.4-.69.03-1.38.08-2.05.17.01,0,.03-.01.04-.02-.03,0-.06,0-.09-.01-.1.32.3.3.65-.03Z"/>
    <path class="uuid-4952f5af-710b-4548-94c0-f211fe423dba" d="m55.73,32.27c-.21-.07.03-.48-.26-.24.02.17.03.3.26.24Z"/>
    <path class="uuid-4952f5af-710b-4548-94c0-f211fe423dba" d="m55.71,31.38s.07-.32-.12-.19c.13.04-.13.32.12.19Z"/>
    <path class="uuid-4952f5af-710b-4548-94c0-f211fe423dba" d="m23.03,55.91c.07.13-.13.41.09.5-.21.14-.16.36-.34.51,0,0-.18.11-.33.19.09,0,.19,0,.28-.05.05-.02.55-.31.57-.32.18-.15.13-.37.34-.51-.23-.08-.02-.36-.09-.5-.14-.25-.62-.24-.76-.66-.32-.06-.78-.21-.76-.66.45-.46.96-1.07,1.66-1.57.11-.08.3-.13.42-.22.56-.41,1.32-.92,1.85-1.28.46-.31,1.02-.81,1.49-1.09-.02,0-.04-.01-.07-.02-.52.1-1.33.86-1.95,1.28-.52.36-1.29.87-1.85,1.28-.12.09-.31.14-.42.22-.32.23-.6.48-.85.73-.23.41-.43.84-.6,1.29.16.12.37.18.55.22.13.42.62.41.76.66Z"/>
    <path class="uuid-4952f5af-710b-4548-94c0-f211fe423dba" d="m55.57,29.98c.19-.16.38-.29.58-.43-.2.1-.37.2-.56.24-.23.12-.16.22-.14.32.04-.04.08-.09.13-.13Z"/>
    <path class="uuid-4952f5af-710b-4548-94c0-f211fe423dba" d="m45.41,53.27c-.02-.08.05-.17-.05-.25-.08.05-.15.11-.23.16.07.08.15.13.28.09Z"/>
    <path class="uuid-4952f5af-710b-4548-94c0-f211fe423dba" d="m46.03,52.5c-.1.07-.21.14-.31.21.14.13.09.26.14.39.29-.21.01-.4.17-.61Z"/>
    <path class="uuid-4952f5af-710b-4548-94c0-f211fe423dba" d="m44.38,53.57c.1-.07.21-.14.31-.21-.11-.11-.21-.24-.37-.23.1.14-.15.31.06.45Z"/>
    <path class="uuid-4952f5af-710b-4548-94c0-f211fe423dba" d="m55.81,65.73c.24-.06.45-.07.74-.23.23,0,.42.08.72-.08.52-.58.3-1.37-.11-1.74.14-.25.12-.35-.09-.49-.08.05-.15.11-.23.16-.02.13-.08.27-.18.41-.82.53-.98,1.04-.58,1.52-.23.16-.27.31-.26.46Z"/>
    <path class="uuid-4952f5af-710b-4548-94c0-f211fe423dba" d="m54.72,66.27c-.35.12-.39.48-.51.42.27-.25-.1-.46,0-.7.23-.2.3-.07.38-.27-.05-.25-.26-.13-.42-.13.17-.26.23-.51.07-.75-.09.05-.15.03-.21,0-.51.31-.41.58-.44.87-.18-.1-.77.68-.82.29.23-.16.48-.13.57-.32-.14-.43-.56.32-.82.29.07-.06.13-.13.17-.19-.12.07-.24.14-.36.21.11.09.23.13-.02.34-.05-.08-.1-.16-.15-.24-.01,0-.02.01-.03.02-.03,0-.05-.01-.08-.02-.41.28-.29.55-.69.83.04.34.37.05.57.02-.11.19-.03.35-.01.5,0,.02-.1.17-.09.2.03.14.21.19.22.34.01.2-.17.4-.09.55.07.15.42.38.46.38.2.01.58-.07.8-.13.42-.33.41-.65.92-.99.04-.12.03-.23.11-.35.12-.08.14.08.29-.06.01-.13.14-.27-.03-.4.31-.25.4-.48.21-.71Zm-2.46.66s-.04-.06-.06-.1c.08-.05.15-.11.23-.16.02.03.04.06.06.1-.08.05-.15.11-.23.16Z"/>
    <path class="uuid-4952f5af-710b-4548-94c0-f211fe423dba" d="m72.37,36.27c-.19,0-.23.18-.25.31.14-.11.24-.21.25-.31Z"/>
    <path class="uuid-4952f5af-710b-4548-94c0-f211fe423dba" d="m53.38,62.42c-.02.06.01.11.06.14.04-.03.07-.05.11-.08-.06-.03-.11-.1-.18-.06Z"/>
    <path class="uuid-4952f5af-710b-4548-94c0-f211fe423dba" d="m52.9,57.18s-.17.03-.15.11c.05.05.1-.03.15-.11Z"/>
    <path class="uuid-4952f5af-710b-4548-94c0-f211fe423dba" d="m47.58,65.03s.03-.1.05-.14c-.07.04-.11.12-.1.11-.07.03-.15-.09-.23.05-.19.13-.12.29-.04.44.32-.14.2-.36.32-.47Z"/>
    <path class="uuid-4952f5af-710b-4548-94c0-f211fe423dba" d="m24.16,82.39c.37.01.62-.03,1-.35-.14-.87-1.07-.39-1.41-.88-.03-.04-.05-.12-.06-.21.95-.73,1.84-1.56,2.65-2.5.12-.14.24-.28.36-.43.08-.03.17-.07.24-.11.12-.08.23-.22.32-.27.17-.1.38-.12.51-.21.17-.13.27-.41.43-.56.26-.25.65-.44,1-.69.74-.53,1.39-1.2,1.99-1.64.35-.26.66-.42.86-.44.33.22.67.25,1,.47.31-.17.66.22,1.03.17.05,0,.14-.09.24-.13.24-.08.49-.12.56-.39-.07-.13-.04-.23-.12-.31-.09-.08-.24-.03-.33-.07-.2-.09-.52-.15-.65-.29-.14-.15-.09-.34-.25-.55.21-.48.73-.82,1.28-1.26.4-.32.76-.68,1.14-.94.43-.29.93-.44,1.26-.63.11-.11.15-.3.26-.42.11-.12.31-.19.44-.29.12-.1.2-.23.33-.34.08-.07.23-.12.32-.19.11-.09.12-.18.21-.24.12-.08.28-.09.39-.19.08-.07.14-.23.22-.32.07-.08.21-.16.28-.23.15-.16.24-.33.38-.45.14-.12.36-.19.55-.32.38-.26.51-.38.81-.26.12.13.26.18.38.37.6-.11,1.13.43,1.7.57.13.1.03.18.16.28.09-.08.19-.16.28-.23.14.05.31-.07.44.04.15-.17-.01-.53.35-.56.06.07.11.12.17.13.07.23-.15.28-.34.42.1.13.22.05.32.22.1.01.3-.13.21-.24.14-.16.25-.03.39-.19-.08-.09.01-.21.03-.3.02-.1.05-.19.03-.3-.11-.2-.24-.05-.36-.11-.04-.14-.06-.28,0-.41.07.06.13.24.22.1.08-.37.8-1.03,1.14-.6.06-.16.24-.3.31-.46-.26-.17-.19.19-.39.19-.05-.06-.1-.12-.14-.17-.1.02-.2.01-.29,0-.11.18-.08.38-.3.44-.07-.03-.03-.13-.06-.16-.06-.05-.14.05-.19.02-.14-.09-.19-.16-.23-.28.14,0,.3-.12.4-.27-.05,0-.1.03-.17.08.02-.07,0-.14-.03-.21-.22.06-.46.13-.67.24-.13.07-.29.13-.36.23-.03.21,0,.42.13.65-.16.11-.19.23-.26.35-.08.18.02.38-.24.54.19.16-.13.49-.29.31-.11-.16.35-.27.19-.43-.1-.13-.22-.22-.35-.29.02.03.04.05.05.09-.36.24-.71.04-.51-.28.01,0,.03,0,.04,0-.32-.12-.62-.24-.73-.69.2-.55.79-.79,1.47-1.28.86-.62,1.31-1.37,1.84-.91.2.17-.04.29.11.46.11.02.22.06.32.15.05-.06.11-.12.17-.17.15-.13.31-.26.48-.39-.03,0-.07-.02-.1-.03-.27-.1-.54-.22-.81-.49,0-.27.3-.37.5-.55.33-.3.64-.64,1.01-.76.08-.14.15-.24.26-.35.08-.08.27-.12.36-.23.07-.08.06-.19.14-.25.11-.1.25-.12.36-.23.14-.14.21-.32.38-.45.15-.12.57-.28.66-.27.15.01.21.02.31.06,1.91-3.15,4.39-5.86,7.33-7.97-1.03,1.07-2.08,2.1-3.24,3-.14.27-.3.54-.16.8.1.04.26.02.43-.02.14-.03.51-.15.55-.17.43-.2,1.45-.87,1.8-1.18.15-.13.18-.26.32-.36.17-.14.39-.19.57-.32.17-.13.3-.31.48-.47,1.09-.95,2.6-1.85,3.7-2.71.23-.09.36.05.62-.08.11-.2.17-.41.38-.62.9-.75,1.64-1.04,2.04-1.61,2.64-.83,5.46-1.28,8.43-1.28.02,0,.04,0,.06,0,.01,0,.02-.01.03-.02.02,0,.02.02.04.02,1.04,0,2.07.04,3.1.12.08-.27.33-.54.76-.82.11-.14.17-.27.18-.41.08-.05.15-.11.23-.16.21.14.23.24.09.49.27.24.45.65.41,1.07,7.51.97,14.52,4.48,19.1,13.42l.17-.05v.11h23.68V27.71h-23.68v2.97c-.7-.32-1.42-.61-2.14-.9-.3.17-.55.22-.76.19-.04-.15.03-.29.15-.43-.75-.29-1.51-.56-2.28-.81.54-.35.88-.59.85-.94-.2-.11-.6.24-.85.24-.36.25-.57.17-.93.42-.38-.12-.75-.24-1.14-.35-.06.03-.11.06-.17.08-.07.03-.25.04-.29.06-.48.24-1,.69-1.4.76-.02-.07-.07-.07-.14-.04-.04-.23-.08-.46.32-.71.06-.14.13-.36.14-.57-.23-.06-.47-.12-.7-.17-.36.54-.35,1.06-.78,1.6-.48.18-.45-.3-.71-.42-.27-.12-.74.06-1.11,0-.11-.02-.3-.12-.45-.18-.29-.11-.6-.39-1.03-.4-.04,0-.03-.1-.06-.1-.03,0-.12.11-.15.11-.05,0-.18-.07-.28-.09-.06-.01-.2-.02-.25-.04-.16-.06-.27-.25-.4-.28-.29-.07-.67-.02-1.05.1-.46.51-.67,1.05-.29,1.46.15.16.83.22,1.47.38.35.09.73.18,1.08.3.13.04.19.1.31.14.31.11.7.12.86.31.19.22.31.68.03,1.09-.25.38-.65.63-1.13.95-.13-.02-.25-.05-.34-.14-.38.12-.58,0-.82-.06-.43-.1-.84-.02-1.25-.04-.07,0-.14-.02-.22-.03.24.3.42.65.5,1.01.31.02.72-.16,1.08-.24.08.02.15.07.22.12-.03.03-.06.05-.09.07-.22.21-.27.41-.38.62-.25.13-.38,0-.62.08-1.1.86-2.62,1.75-3.7,2.71-.18.15-.3.34-.48.47-.18.13-.39.19-.57.33-.14.11-.18.23-.32.36-.35.31-1.37.98-1.8,1.18-.04.02-.41.14-.55.17-.18.04-.34.06-.43.02-.2-.36.2-.74.29-1.11-.28-.22-.21-.66-.37-.93-.11-.19-.32-.3-.42-.48-.1-.19-.06-.5-.26-.59-.57.64-.03,1.23-.36,1.86.26.25.11.53.17.79.27.06.28-.14.54-.37.12.18.06.36.02.55-.26.21-.42.23-.55.17-.17.14-.04.27-.29.41-.44-.25-.75-.54-1.07-.8-.07-.05-.14-.13-.23-.19-.27-.19-.65-.23-1.08-.3-.15-.03-.32.01-.46-.03-.15-.04-.22-.17-.37-.23-.26-.11-.59-.23-.83-.61-.08-.09-.35.22-.45.17-.09-.11.02-.23.11-.35-.22-.05-.52-.25-.34-.53-.23.16-.88.56-.97.04.06-.12.54-.52.69-.48.17-.18-.28-.11-.11-.34.19-.15.3-.11.35.03.31-.41.56-.82.55-1.22.37-.24,1.32-.77,1.72-1.12.21-.24.15-.47.11-.7.19-.32.43-.78.24-1.01-.18-.22-.52-.08-.89-.01-.16-.14-.32-.31-.49-.43-.26.17-.47.38-.85.59-.36.2-.72.29-1.11.7-.26.18-.45.21-.63.23-.23.21-.13.41-.38.62-.3.29-.36.01-.63.23-.22.12-.21.28-.29.41-.04.06-.17.14-.2.21-.03.05.04.16.02.2-.08.12-.46.57-.64.73-.11.1-.26.11-.42.22-.25.17-.7.59-1.14.65-.17.17-.37.35-.66.53-.47.12-.88.08-1.25-.04.2-.17.38-.44.6-.62.12-.1.16-.04.26-.11.08-.06.27-.31.48-.47.11-.08.15-.03.19-.06.03-.02.37-.34.58-.47.1-.06.32-.15.42-.22.29-.21.55-.52.86-.74.29-.2.62-.29.91-.49.21-.14.36-.36.55-.52.41-.35.89-.73,1.32-1.06.36-.27.75-.59,1.12-.85.16-.11.34-.16.49-.27.16-.12.24-.28.4-.42.71-.62,1.56-.98,2.34-1.55.03.05.12-.03.18-.06.44.03.72.44,1.22.34.14.11.12.26.17.44.03.12.13.27.14.39,0,.09-.11.25-.11.35,0,.13.07.19.08.3,0,.11-.01.25,0,.35.01.09.08.2.08.3,0,.02,0,.04-.01.06-.07,0-.15,0-.25.05-.13.28-.03.55-.32.84.17.02.35.03.54.05,0,.07,0,.14.03.19.16.44.41.67.31,1.18.31.09.8-.09,1.03-.29.46-.41.12-1.03.54-1.42-.08,0-.14-.05-.19-.12,0,0,0-.01-.01-.02.17-.14.07-.27.18-.4-.08-.31-.14-.82-.28-1.38.19.02.34.11.56.07.35-.18.3-.35.55-.52.03-.18-.31-.04-.12-.19.41-.25.73-.29,1.21-.7.08-.11.13-.22.19-.33.02,0,.04.01.06.02.21.06.46.12.62.27.06.14.32-.17.35.03.06.16-.16.34-.23.51.19.22.03.46,0,.7.18.46.64.9.33,1.38.21.16.53.07.77.17-.04.08.04.16-.06.25.56.14.93.68,1.68.37.31.22.65.35,1.08.3.29-.16.34-.31.48-.47-.12-.23-.39-.57-.26-.94-.1-.1-.32.09-.39-.08-.15-.14.2-.31.04-.45-.24-.16-.55-.19-.93-.06-.01-.12-.09-.23,0-.35-.44-.07-.97.05-1.2-.5.14-.41.29-.81.44-1.22-.04-.09-.31-.08-.49-.08-.15,0-.52.01-.54.02-.21.14-.04.36-.37.46-.1,0-.36-.2-.22-.34-.38.04-.64-.17-.93-.32.01-.01.02-.03.04-.04.43-.08,1.15-.65,1.41-.91.29-.28.53-.6.29-.76-.51.24-1.02.47-1.63.92-.19.16-.14.31-.37.47-.12.07-.28.14-.43.21-.68-.44-1.58-.38-2.13-1.09.09-.32.45-.53.74-.79-.85-.03-1.71-.05-2.57-.05-1.11,0-2.22.04-3.31.11.09.17.12.36.04.56-.41.44-1.02.81-1.63,1.27-1.24.93-2.62,2.02-3.68,2.41-.27-.08-.41-.28-.71-.42-.05-.02-.22-.02-.25-.04-.08-.05-.07-.2-.15-.24-.4-.21-.94-.22-1.28-.44-.19.19-.14.37-.2.56.19.1.44.11.66.17.19.06.38.18.59.22.39.09,1.14-.09,1.1.5-.19.24-.49.38-.74.58-.42.35-.75.79-1.18,1.1-.61.44-1.23.52-2.01,1.19-.1.08-.2.27-.32.36-.31.24-.65.38-1.03.64-.44.31-.85.7-1.28.95-.27.16-.6.26-.86.39-.35-.09-.67-.2-.88-.51-.14-.21-.14-.48-.4-.63-.15-.08-.47-.22-.6-.42-.03-.17-.34.29-.37.12-.18,0-.06-.25-.25-.39.19-.19.24-.07.42-.22.11-.14-.03-.27.29-.41-.09-.28-.45.06-.51-.28.09-.25.28-.31.58-.47-.04-.08-.15-.16-.05-.25-.66.2-.78.8-.5,1.12-.18.2-.36.33-.62.43.11.16.28.15.36.38-.2.52-.82,1.07-1.2,1.6-.01.19.29.21.51.28.21.06.45.18.71.07.09.22.43.17.54.33.14.2-.02.54.06.8-.37.33-.75.8-1.26,1.15-.14.1-.2.06-.34.16-.63.47-1.3,1-1.94,1.48-.95.72-1.81,1.38-2.46,1.01-.1-.06-.17-.19-.26-.24-.06-.03-.18.03-.22.01-.05-.02-.04-.13-.09-.15-.07-.02-.25.03-.32.01-.11-.03-.2-.12-.31-.14-.09-.02-.22.03-.32.01-.11-.02-.21-.12-.31-.14-.25-.05-.59-.02-1.02.14-.09.51.6.2.82.41.2-.11-.18-.19.14-.31.23-.01.09.16.08.3.33.09.75-.02.97.31.42-.03.9.1.65.67-.31.31-.94.9-1.43,1.06-.29.16-.08.3-.37.47-1.08.5-1.97,1.46-2.89,2.07-.16.11-.41.15-.52.22-.14.08-.13.17-.28.26-.07.05-.15.02-.26.11-.14.11-.26.31-.4.42-.25.19-.55.31-.8.48-.96.66-1.65,1.33-2.54,1.41-.19-.02-.34-.18-.59-.22-.15-.03-.48-.15-.69-.22-.09-.03-.1-.12-.2-.14-.07-.01-.23.08-.29.06-.22-.05-.37-.24-.69-.22-.04,0-.12.1-.15.11-.03,0-.03-.1-.06-.1-.11.02-.22.14-.34.16-.09.02-.1-.05-.22.01-.6.3-1.48,1.04-1.43,1.41.04.32.43.22.76.32.11.03.1.13.2.14.11.01.46,0,.6.07.27.12.22.38.6.42.22-.14.04-.27.4-.42.31.02.54.2.5.43-.28.3-.16-.28-.43.02.12.31.79.44,1.16.6-.14.22-.54.23-.74.23-.26.26-.28.36-.66.53.02-.24-.33-.13-.48-.23-.19-.12-.18-.37-.51-.28-.51.41-.96.79-1.58,1.17-.23.14-.55.26-.83.44-1.01.66-1.86,1.69-2.64,1.76-.28-.25-.12-.53-.06-.8.36-.25.72-.5,1.08-.75.22-.14.05-.27.4-.42.2-.21.2.01.28.09.29-.31.68-.63.84-.93.03-.12-.09-.19-.11-.34-.01-.09.06-.24.03-.3-.05-.1-.26-.11-.34-.18-.27-.24-.41-.76-.91-.56-.25.18-.33.35-.66.53-.28-.13-.59-.18-.94-.16-.99,1.5-1.91,3.03-2.76,4.59.07-.02.14-.04.19-.03.25.02.36.27.57.37.07.04.11-.06.18-.06.17.01.19.24.29.29.26-.13.06-.24.32-.36.26.05.6-.07.77.17-.14.3-.52.48-.75.38-.19.15-.36.24-.51.3-.06-.03-.13-.06-.19-.09-.43-.22-.71-.56-.88-.95-.38.69-.75,1.39-1.1,2.09-.15.03-.32.07-.5.14-.04.24.09.3.27.32-.7,1.44-1.34,2.9-1.92,4.39-.13.09-.25.19-.38.27-.14.09-.34.14-.47.2-.23.87-.44,1.75-.63,2.63-.19.2-.37.39-.57.57-.46.05-.9.53-1.32.89-.55.47-.97.74-1.08,1.06-.75.26-1.64,1.23-2.21,1.73-.23.2-.44.31-.52.4-.02.02.02.12,0,.15-.04.06-.19.11-.22.17-.07.13.01.25-.09.36.61.43,1.29.66,1.92,1.06.24,0,.56-.1.71.03.33.28.07.95-.27,1.38-.23-.22-.94.14-.91-.31.22.07.8-.26.98-.55-.16-.2-.47-.14-.71-.18-.24-.04-.44-.16-.75-.07-.11-.23-.64-.04-.75-.07-.19-.05-.27-.24-.5-.05-.19.12-.1.21-.33.33.2.36.24.74.56,1.09-.16.52-.17,1.02-.06,1.51-.12.13-.49.28-.3.38.1.16.2.28.38.21.22-.08.21.27.16.38-.19.1-.17-.37-.42-.11,0,.42.17.44.43.76.41-.28.58-.79,1.07-.91-.31.63.26,1.18.14,1.79.34.17.77.23.98.55.11.17-.04.52.22.63.27-.11.6-.39.92-.64.1.12.23.01.32.12.12.15-.08.45-.1.66-.12.23,0,.43-.31.68-.14.06-.15-.24-.36-.01-.48.42-.85,1.02-1.48,1.3-.25.33-.4.6-.72.92-.07.07-.16.05-.18.07-.08.06-.09.13-.19.22-.58.52-1.48,1-1.92,1.5-.19.22-.19.42-.35.64-.14-.05-.32.03-.54.21-.3.43-.72.88-.48,1.25.8-.36,1.46-1.05,2.24-1.68.19-.15.41-.25.62-.41.39-.3.75-.68,1.14-.97.52-.39,1.05-.69,1.51-1.11.19-.17.36-.38.54-.58,0,.03.02.07.04.1.62-.24,1.18-.67,1.77-1.13.07.9.17,1.78.28,2.66.04.04.08.06.12.07.12.04.23.15.37.04.11.12.24.11.36.18.36-.22.64-.11.94-.1ZM106.04,28.75c.01.15-.26.41-.4.42-.14-.17.2-.51.4-.42Zm-.48-.58c.18-.08.21-.04.17.09-.05.04-.1.07-.15.11-.07-.06.02-.13-.02-.2Zm-1.76,3.67c.07.13,0,.27-.18.41-.04-.06-.08-.13-.12-.19.1-.07.2-.14.31-.21Zm-.77.18c.18-.08.21-.04.17.09-.05.04-.1.07-.15.11-.07-.06.02-.13-.02-.2Zm-6.45,7.27c-.14.08-.23.04-.28-.09.22-.19.35-.07.28.09Zm-4.13.83c-.19,0-.03-.07-.12-.19.08-.05.15-.11.23-.16.1.11.11.23-.11.35Zm.04-1.85c-.01-.09.07-.04.15-.11.02.07-.12.15-.15.11Zm-4.62-4.28c.16-.12.29-.13.49-.27.15-.1.28-.28.43-.37.47-.29.99-.44,1.37-.81.16-.08.34-.21.4-.07.31-.2.31-.54.58-.82.37-.38.87-.67,1.38-.96.32.27.39,1.1-.12,1.55-.45.4-.85.32-1.26.45-.11.04-.17.09-.26.11-.13.03-.25-.1-.4.07-.34.14-.44.46-.68.68-.86.79-2.08,1.45-3,2.08-.09-.2-.39.09-.45-.18.38-.49.9-1,1.5-1.46Zm-4.4,3.19c.28.04.51.37.33.68.09.18.26.35.02.55-.19-.51-1.28-.49-.34-1.23Zm-4.03,3.07c.33-.4,1.2-.98,1.94-1.48.19-.11.36-.18.48-.12.13-.17.61-.76.8-.48.11.15-.44.61-.58.47-.14.27-.07.48-.21.71-.1.16-.39.46-.6.62-.22.18-.43.18-.68.33-.36.22-.59.57-.97.74-.24.02-.51.12-.63-.12,0-.21.25-.42.46-.67Zm-5.95-2.03c-.04-.06-.08-.13-.12-.19.17-.14.3-.2.42-.22.13.13-.06.27-.29.41Zm-.15,1.85c-.05.08-.1.15-.15.11-.02-.07.12-.15.15-.11Zm1.01,3.84c.52-.32,1.01-.49,1.32-.71.16-.11.43-.44.58-.47-.07-.01-.13-.02-.17-.09.38-.16.75-.53,1.03-.64.19-.08.55-.14.63.12.09.29-.27.3-.24.66-.87.37-2.27.97-2.51,1.81-.54.46-.94.76-1.58,1.17-.27.17-.53.42-.77.53-.28.13-.55.22-.69.13-.67-.44,1.05-1.67,2.4-2.5Zm7.15-13.63c.12-.1.16-.05.26-.11-.02.12.06.23-.21.36-.1-.08-.03-.16-.05-.25Zm-6.47-2.66c.32-.24.48-.05.75-.03.25.02.47.01.68.02.08.11.19.14.27.24-.13.11-.27.27-.44.37-.15.09-.31.08-.45.17-.11.07-.23.24-.35.31-.19.12-.4.25-.6.38-.17-.54-.2-1.21.13-1.46Zm-37.35,22.6c.08,0,.16.13.15.24-.29.15-.2-.11-.15-.24Zm32.34-7.72c.07-.12.24-.19.38-.27-.12.1-.23.18-.38.27Zm.74-.58c-.09.07-.16.14-.23.2.03-.04.05-.08.04-.14-.16.12-.14-.15-.23-.19-.29.1-.39.44-.54.37-.18-.14.32-.31.48-.47.17.02.34.06.5.12,0,.04-.01.07-.02.11Zm-6.36-4.06s.04.06.06.1c-.05.04-.1.07-.15.11-.02-.03-.04-.06-.06-.1.05-.04.1-.07.15-.11Zm-16.1,5.35c.04-.08,0-.2.14-.3.38-.32.69-.41.94-.44.1-.01.18-.01.32-.01-.04,0,.22.04.23.19-.17.33-.7.62-1.09.9-.31.21-.64.66-.91.49-.14-.22.24-.57.37-.81Zm-4.05,8.41c-.3-.37-.32-.75-.5-1.13.24-.11.15-.21.35-.31.24-.18.31.01.49.08.11.04.65-.12.74.12.31-.07.51.07.74.12.24.05.55.01.69.22-.2.28-.8.57-1.01.49-.06.44.68.13.89.36.37-.41.67-1.06.35-1.36-.14-.14-.47-.05-.71-.07-.6-.43-1.27-.7-1.85-1.16.1-.1.03-.23.11-.35.03-.06.18-.1.23-.16.02-.03,0-.13.02-.15.08-.08.29-.19.54-.37.6-.46,1.55-1.39,2.31-1.6.12-.32.56-.56,1.14-1,.44-.34.9-.79,1.37-.81.39-.31.72-.68,1.14-1,.22-.17.48-.26.72-.43.36-.26.79-.7,1.4-1.11.16-.11.62-.36.72-.43.13-.1.38-.43.6-.62.18-.15.4-.26.61-.43.32-.25.62-.55.94-.79.12-.09.27-.11.42-.22.29-.2.43-.38.8-.48.59.12.9.25,1.02.9.03.18.11.39.12.54.01.19-.11.49-.11.7,0,.43.18.73-.04,1.15.26.42.18.86.16,1.29.31.13.76-.04.93.41.15.18-.27.38-.2.56.63-.41.86-.8,1.34-1.21.32-.56.32-1.11.7-1.68-.07-.23-.08-.46,0-.7-.44-.33.06-1.09.3-1.61-.22-.02-.07.37-.45.52-.17-.24.04-.5.18-.76-.14-.12-.32-.14-.48-.23-.19-.47-.63-.94-.58-1.42.3-.19.54-.03.79.02.25.04.8.05,1,.35.61-.06.96.45,1.48.58.1.11.09-.16.31-.21.11.07.25.06.43-.02.34-.16.14-.3.48-.47-.04-.14-.33.27-.32.01.09-.23.55-.13.46.03.31-.21.4-.42.71-.63-.31,0-.73-.11-.56-.52.45-.32.85-.55,1.12-.5.06-.14.39-.37.54-.37.06.1.12.19.19.29-.67.39-.97.65-1.29,1.1.22.07.16.19.25.39-.3.02-.41.3-.62.43-.21.12-.33,0-.68.33.07.24.49-.3.63-.23.12.14.06.3-.15.46.1.15-.04.3-.04.45-.19.18-.22.01-.37.12.22.13-.03.32.03.4.16.2.42.04.62-.08.5-.3.64-1.16,1.15-1.15.28.25-.08.53-.04.8.34.61.87.79,1.5.78.23.23.61.32.93.41.3.09.61.2.99.16.03.33.57.13.76.32.14.14.18.32.18.51-.19-.14-.37-.32-.51-.52-1.77,1.79-3.88,3.3-5.94,4.85.02,0,.03.02.05.03.15.06.34.16.45.18.21.03.44,0,.66-.03-.63.45-1.26.91-1.88,1.37-.06-.03-.11-.06-.19-.08-.23-.08-.46-.14-.7-.2-.39.31-.77.63-1.14.96.08-.01.17-.04.23.01-.07.21-.01.41.07.59-.33.24-.67.49-1.02.71-.12-.05-.24-.11-.35-.19-.06.03-.12.04-.18.05-.25.25-.5.51-.75.77-.46-.23-.33-.82-.32-1.22-.46.27-.17.51-.18.76-.27.27-.33.44-.6.63-.98.65-1.51-.42-2.42-.14-.44-.31-.99-.39-1.44-.68-.49-.05-.99-.07-1.45-.19-.61.13-1.31-.07-2.11.34-.13.07-.32.3-.51.42-.29.2-.59.25-.75.38-.41.33-.5.67-.78,1.03-.06.2.07.22.03.4-.02.07-.37.3-.11.35-.21.2-.31.14-.49.27-.13.3.29.04.33.33-.06.17-.53.36-.34.51.62-.15.35-.68.81-.98.35-.31.43-.01.69-.13.37-.47-.17-.6-.22-1.04.26-.35.39-.97,1-1.04.12.37-.25.65-.17.95.04.15.43.5.59.57.28.14.79.07,1.2.15.2.04.36.14.56.17.17.03.27.03.46.03.09,0,.3.13.45.18.33-.03.52.1.77.16.29.07.57.02.73.27.15.24.07.81-.26,1.16-.16.17-.49.37-.74.58-.47.4-.8.72-1.43,1.06-.24.21-.23.41-.49.62-.34.24-.55.21-.86.39-.34.23-.32.45-.57.67-.3.2-.53.25-.79.33-.38.25-.8.61-1.06.6-.06.08-.12.16-.2.23-.55.05-1.04-.13-1.41-.46.02-.08.03-.16.08-.25.03-.21.25-.49.14-.65-.08-.11-.22-.01-.31-.14-.24.17-.49.35-.71.47-.14-.06-.28-.14-.4-.24,0-.1,0-.21-.04-.28-.07-.12-.18-.21-.3-.28.03-.12.11-.25.13-.37-.07.11-.14.21-.22.32-.18-.1-.38-.17-.56-.28.15-.6-.39-1.18-.04-1.79-.5.09-.69.59-1.12.85-.24-.34-.41-.36-.39-.78.27-.25.22.22.42.13.06-.11.09-.46-.14-.39-.19.06-.29-.07-.37-.23-.18-.11.19-.24.32-.36-.08-.5-.04-1,.15-1.5Zm.57,3.67c-.2.18-.46.29-.74.23-.24-.33.53-.94.94-1.14-.05.22.11.64-.2.91Zm-2.88-.87c.14.02.4-.06.31.14-.18.07-.41.07-.31-.14Zm.03,4.25c.07.15.16.11.24.21.16-.19.29-.12.43-.22.04.05.09.11.13.16.07.06.16,0,.22.02.06.01.06.04.11.05.02,0,.18.03.26.06.04.02.11.11.17.13.06.02.18-.15.26.06.12-.33.38-.12.57-.06.15-.07.11-.16.21-.24.18.21.38.15.59.13.18.08.17.26.37.45.17.17.36.14.53.31-.07.57-.65.81-1.1.98-.07.03-.16.1-.24.13-.13.04-.14,0-.23.05-.17.12-.26.38-.42.48-.16.11-.38.09-.54.17-.24.47-.71.9-1.29,1.33-.23.17-.47.39-.69.57-.23.19-.5.34-.68.5-.11.09-.14.21-.25.28-.07.04-.2-.04-.23.05-.55-.08-.59-.67-.86-1.13.08-.17.03-.31,0-.48,0-.04-.05-.09-.06-.16,0-.03.05-.09.05-.11-.02-.07-.12-.18-.13-.24,0-.05.06-.13.05-.18-.01-.13-.15-.23.04-.37-.32-.21-.1-.69-.53-1.06-.2-.17-.42-.06-.65-.21-.11-.17-.15-.46-.36-.52-.21.15-.04.34-.05.52-.23.22-.03.47-.25.69.07.12-.02.22.08.34-.2.4-.29.82.03,1.27.02.19-.05.37-.09.55.28.24.06.43.13.65.52.48.45.94.96,1.32-.15.62-.74.89-1.2,1.27-.36.3-.91.87-1.47,1.28-.21.16-.46.26-.68.42-.56.4-1.04.91-1.54,1.27-.17.12-.37.21-.52.36-.11.11-.15.25-.26.35-.14.14-.35.26-.49.4-.08.09-.13.24-.22.32-.25.22-.6.34-.87.51-.39-.14-.62-.12-.8-.64-.03-.1-.06-.19-.08-.28.08-.64.11-1.29.08-1.94-.06-1.42-.33-2.8-.77-4.11.46-.28.93-.56,1.39-.86.26.03.5.16.73.47.15.16-.19.4.11.46.19.03.07-.29.22-.39.14.08.3.1.39.22.07.1.01.11.02.19,0,.11.16.32.11.46.22-.1.04-.24.04-.37.32-.25.61-.17.91-.14.27-.16.28-.35.46-.52-.15-.49-.37-.85-.76-1.08-.08-.05-.26-.07-.36-.11-.13-.05-.25-.12-.37-.18,2-1.36,3.89-2.86,5.6-4.56,0,0,0,0,0,0,.11.2.02.33.02.53,0,.06.06.1.06.16,0,.03-.05.09-.05.11.01.1.11.03.06.16.51-.11.18-.63.35-.9.1.15.23-.08.32.14.19-.04.37,0,.57-.06.31.25.66.14.95.58.17.06.35,0,.53-.1.24.08.48.19.74.07Zm-10,1.67c-.48.04-.4-.57.21-.71.1.1.24.1.29.29-.17.14-.24.28-.51.42Zm.27.94c-.03.15.06.3-.26.46-.16-.15.02-.44.26-.46Zm1.71-1.67c.05.13.13.18.23.19.2-.14.47-.29.4-.42.25-.11.13.01.2.14.18-.13.28-.07.49-.27.07.11.14.23.22.34-.52.41-.46.78-.9,1.19-.34.21-.47-.06-.85.24-.1.09.07.16-.06.25-.02.02-.04.03-.07.04-.07,0-.14,0-.21-.01-.09.05-.18.09-.27.14-.19-.06-.31-.27-.43-.47.37-.45.66-.89,1.24-1.35Zm-.77.18c.06-.13.3-.28.51-.42.17.19-.03.4-.38.62-.04-.06-.08-.13-.12-.19Zm.95-.24c.18-.23.36.06.09.15-.03-.05-.06-.1-.09-.15Zm-4.88.17c.16-.12.34-.14.49-.27.23-.19.37-.45.6-.62.24-.18.58-.38.88-.54.21-.11.52-.33.71-.28.04-.41.56-.53.95-.94,0,.21.2.03.28.09.16-.44.8-1.2,1.46-1.36.18-.25.48-.46.94-.79.12-.08.11-.15.2-.21.02-.01.11,0,.18-.06.27-.22.47-.5.75-.73.78-.65,1.69-1.26,2.65-1.76.34.02.64.14.94.26.05.13,0,.27.14.39.37-.1,1-.22.99.16-.37.27-.43-.13-.8.14-.46.32-.09.6-.52.92.23-.04.5-.16.78-.33.39.03.63.18.82.41.11.04-.31.33-.31.21-.18.32-.11.64-.49.97-.35.26-.52.15-.82.29-.18.2.19.05.05.25-.34.25-.05.47-.43.72.1.26.18.52.39.78-.28.2-.18.21-.46.32-.48-.25-.23-.83-.5-1.12-.08-.09-.28-.08-.42-.13-.09-.03-.1-.11-.2-.14-.12-.04-.38-.05-.46-.38-.11,0-.21,0-.32.01-.21-.27-.19-.77-.56-.87-.24-.09-.74.39-.86.04-.23.33-.6.66-.7.98-.23.17-.36.11-.55.17-.28.21-.36.42-.49.62-.33.26-.59.37-.88.54-.12-.04-.29.03-.34-.18-.16.26-.29.27-.31.56-.13.1-.69.41-1,.69-.16.14-.33.3-.29.41-.61.33-.56.62-.95.94-.18,0-.39.09-.49-.08,0,.12-.37.25-.32.36-.25.12-.41.06-.62.08-.11.14-.15.27-.29.41-.3.16-.5.02-.75.38.03-.1.02-.2-.08-.3.28-.3.59-.69,1.03-.99Zm11.4-5.94c-.21.04-.02-.16-.23-.19.24-.11.16-.21.35-.31.24.16-.17.34-.12.5Zm-23.39,21.35c-.22-.13.02-.3-.09-.44.16-.02.27.11.38.21-.1.08-.2.15-.3.23Zm.73-.43c.07-.06.15-.12.22-.17.1.07.04.16.06.24-.12.05-.21,0-.28-.07Zm.72-.12c-.06-.13-.01-.27-.16-.38.1-.08.2-.15.29-.23-.14.21.15.39-.13.61Zm3.31-1.26c-.3.33-.1.77-.66.93-.2-.15.26-.36.31-.53-.05-.29-.45,0-.34-.31.17-.14.27-.09.48-.3-.26-.04.08-.29.09-.36.03-.18-.1-.2-.06-.39.11-.16.19-.32.28-.48-.04.48-.06.96-.09,1.44Z"/>
    <path class="uuid-4952f5af-710b-4548-94c0-f211fe423dba" d="m52.63,65.48s0,0,.01,0c0,0,0,0,.01,0,0,0-.02,0-.02,0Z"/>
    <path class="uuid-4952f5af-710b-4548-94c0-f211fe423dba" d="m32.21,64.96c-.19.11-.03.25-.26.35.1.04.18.19.28.18-.05-.18.18-.33-.02-.53Z"/>
    <path class="uuid-4952f5af-710b-4548-94c0-f211fe423dba" d="m31.31,76.01c.14.11.28.2.44.04,0-.09-.07-.18-.16-.28-.11.06-.27.09-.28.23Z"/>
    <path class="uuid-4952f5af-710b-4548-94c0-f211fe423dba" d="m38.78,75.3c.11.05.22.06.33.07.47-.3.17-.56-.16-.69-.12.06-.23.09-.36.23-.06-.14-.15-.02-.22-.1-.14-.36-.4-.38-.64-.7-.09.15-.18-.08-.22-.1-.02,0-.08.04-.11.03-.05-.02-.08-.14-.14-.09.16.31-.23.58-.31.87.15.25.35-.02.5.2-.02.11.14.24,0,.34-.14.13-.24-.12-.38.04-.12.13-.08.27-.15.4.34.31.69.65,1.06.62-.02-.24-.14-.49-.27-.74.11-.09.22-.18.32-.27.24.02.47.02.72-.12Z"/>
    <path class="uuid-4952f5af-710b-4548-94c0-f211fe423dba" d="m38,71.3c.27.15.11.35.28.59.17-.28.45-.23.69-.23.09-.18.15-.43.06-.67-.08-.21-.31-.47-.5-.61-.28,0-.09.27-.3.38-.23.14-.43.1-.66.27-.01.12.16.26.26.4,0,.14,0,.27.07.42.08.06.02.28.17.13.21-.06-.43-.51-.08-.68Z"/>
    <path class="uuid-4952f5af-710b-4548-94c0-f211fe423dba" d="m72.2,55.28c-.08.06-.16.01-.15.11.03.05.17-.03.15-.11Z"/>
    <path class="uuid-4952f5af-710b-4548-94c0-f211fe423dba" d="m53.36,62.23c-.06-.07-.11-.14-.17-.2-.18.04.09.37.17.2Z"/>
    <path class="uuid-4952f5af-710b-4548-94c0-f211fe423dba" d="m26.8,96.73c-.13.1-.13.22-.13.34.06.13.12.26.18.38-.03-.22.1-.42.01-.64-.02-.03-.04-.05-.07-.08Z"/>
    <path class="uuid-4952f5af-710b-4548-94c0-f211fe423dba" d="m61.42,55.75c-.11-.06-.29.01-.48.12-.74.5-1.6,1.08-1.94,1.48-.21.25-.46.46-.46.67.12.24.39.14.63.12.38-.17.61-.52.97-.74.25-.15.45-.15.68-.33.2-.16.5-.47.6-.62.14-.23.07-.44.21-.71.14.14.69-.33.58-.47-.18-.27-.67.31-.8.48Z"/>
    <path class="uuid-4952f5af-710b-4548-94c0-f211fe423dba" d="m57.07,59.89c-.02-.35.33-.37.24-.66-.08-.26-.44-.2-.63-.12-.29.12-.65.48-1.03.64.04.07.1.08.17.09-.15.03-.42.36-.58.47-.32.22-.8.39-1.32.71-.06.03-.11.07-.17.11.25.06.51.06.75.23.07-.11.18-.07.27-.09.02,0,.03-.01.05-.02.49-.62,1.55-1.07,2.26-1.37Z"/>
    <path class="uuid-4952f5af-710b-4548-94c0-f211fe423dba" d="m48.87,72.22c.34-.26.59-.69,1.01-.88.04-.04.08-.09.12-.13.07-.06.14-.1.21-.15.02-.05.05-.1.04-.15.04.04.09.04.14.03.32-.2.65-.37.92-.61.07-.06.12-.16.17-.24.01-.19.05-.39-.02-.58-.2-.03-.46.08-.69.13.09-.51-.67-.16-.85-.46-.24.11-.16.21-.35.31.01.12.28.22.11.34-.32.2-.42-.1-.68-.02.12-.32.2-.13.54-.37-.18-.23-.53-.08-.73-.27-.37.18-.33.35-.55.52.03-.08.03-.12.01-.13,0,0-.01.02-.02.02-.19,0-.37-.05-.56-.12,0,0-.01,0-.02.01.03.08-.14.17-.26.25,0,0,0,0,0,0,0,.03-.01.07-.02.11,0,.06.02.13.08.19-.3.33-.69.66-.6.97-.36.2-.38.38-.74.58.22.36.21.44.2.84.53-.27.38.24.66.52.41-.27.43.31.86-.04.11-.12-.15-.23,0-.35.14-.04.29-.1.35.03-.13.09-.16.18-.15.26.25-.2.53-.38.8-.59-.03,0-.05,0-.08,0-.02-.06.06-.08.08-.05Z"/>
    <path class="uuid-4952f5af-710b-4548-94c0-f211fe423dba" d="m43.27,68.93c.05.12.02.42.2.24-.07-.17-.21-.4-.27-.66-.24.08.02.3.07.42Z"/>
    <path class="uuid-4952f5af-710b-4548-94c0-f211fe423dba" d="m47.07,65.93c.08-.06.15-.09.23-.1.03-.08.06-.16.09-.24-.17.09-.4.17-.31.35Z"/>
    <path class="uuid-4952f5af-710b-4548-94c0-f211fe423dba" d="m21.6,63.77c-.24.04-.55.15-.91.49-.13.11-.08.23-.12.31-.12.25-.47.62-.32.83.28.16.58-.31.88-.54.38-.29.89-.62,1.04-.96-.02-.15-.28-.17-.24-.18-.14.01-.22.02-.32.03Z"/>
    <path class="uuid-4952f5af-710b-4548-94c0-f211fe423dba" d="m40.23,55.05c-.03-.07.07-.2-.09-.15.03.07-.07.2.09.15Z"/>
  </g>
  <g>
    <path class="uuid-4952f5af-710b-4548-94c0-f211fe423dba" d="m34.16,147.43c.07.55.09,1.01.09,1.4,0,4.67-3.34,8.03-7.99,8.03s-8.31-3.52-8.31-8.05,3.61-8.06,8.24-8.06c3.43,0,6.44,1.61,7.53,4.63l-3.66,1.06c-.9-1.75-2.37-2.21-3.87-2.21-2.51,0-4.42,1.98-4.42,4.58s1.96,4.6,4.53,4.6c2.03,0,3.5-1.06,4.07-2.76h-4.72v-3.22h8.49Z"/>
    <path class="uuid-4952f5af-710b-4548-94c0-f211fe423dba" d="m45.94,156.52l-4.65-5.29h-1.1v5.29h-3.8v-15.42h7.8c3.34,0,5.55,2.02,5.55,5.04,0,2.53-1.56,4.35-4.05,4.9l4.83,5.48h-4.58Zm-2.16-8.47c1.36,0,2.23-.74,2.23-1.86s-.87-1.84-2.23-1.84h-3.59v3.7h3.59Z"/>
    <path class="uuid-4952f5af-710b-4548-94c0-f211fe423dba" d="m67.72,148.84c0,4.49-3.61,8.03-8.22,8.03s-8.22-3.54-8.22-8.03,3.61-8.08,8.22-8.08,8.22,3.57,8.22,8.08Zm-3.8,0c0-2.65-1.91-4.6-4.42-4.6s-4.42,1.96-4.42,4.6,1.91,4.56,4.42,4.56,4.42-1.93,4.42-4.56Z"/>
    <path class="uuid-4952f5af-710b-4548-94c0-f211fe423dba" d="m84.59,156.52h-3.13l-7.8-8.93v8.93h-3.8v-15.42h3.15l7.8,9.21v-9.21h3.77v15.42Z"/>
    <path class="uuid-4952f5af-710b-4548-94c0-f211fe423dba" d="m99.3,156.52h-12.01v-15.42h11.94v3.27h-8.15v2.9h7.48v3.08h-7.48v2.9h8.22v3.27Z"/>
    <path class="uuid-4952f5af-710b-4548-94c0-f211fe423dba" d="m119.46,156.52h-3.68v-7.69l-4.03,7.69h-2.35l-4.05-7.73v7.73h-3.68v-15.42h3.73l5.18,9.55,5.18-9.55h3.71v15.42Z"/>
    <path class="uuid-4952f5af-710b-4548-94c0-f211fe423dba" d="m134.15,156.52h-12.01v-15.42h11.94v3.27h-8.15v2.9h7.48v3.08h-7.48v2.9h8.22v3.27Z"/>
    <path class="uuid-4952f5af-710b-4548-94c0-f211fe423dba" d="m136.52,156.52v-15.42h3.8v15.42h-3.8Z"/>
    <path class="uuid-4952f5af-710b-4548-94c0-f211fe423dba" d="m155,156.52h-12.01v-15.42h11.94v3.27h-8.15v2.9h7.48v3.08h-7.48v2.9h8.22v3.27Z"/>
    <path class="uuid-4952f5af-710b-4548-94c0-f211fe423dba" d="m166.93,156.52l-4.65-5.29h-1.1v5.29h-3.8v-15.42h7.8c3.34,0,5.55,2.02,5.55,5.04,0,2.53-1.56,4.35-4.05,4.9l4.83,5.48h-4.58Zm-2.16-8.47c1.36,0,2.23-.74,2.23-1.86s-.87-1.84-2.23-1.84h-3.59v3.7h3.59Z"/>
  </g>
  <g>
    <path class="uuid-a56a9c4b-08ad-4022-9ae1-b4a31fa027e7" d="m32.55,178.74h-3.77v-6.1h-6.49v6.1h-3.8v-15.42h3.8v6.01h6.49v-6.01h3.77v15.42Z"/>
    <path class="uuid-a56a9c4b-08ad-4022-9ae1-b4a31fa027e7" d="m47.58,178.74h-12.01v-15.42h11.94v3.27h-8.15v2.9h7.48v3.08h-7.48v2.9h8.22v3.27Z"/>
    <path class="uuid-a56a9c4b-08ad-4022-9ae1-b4a31fa027e7" d="m65.02,178.74h-3.13l-7.8-8.93v8.93h-3.8v-15.42h3.15l7.8,9.21v-9.21h3.77v15.42Z"/>
    <path class="uuid-a56a9c4b-08ad-4022-9ae1-b4a31fa027e7" d="m82.8,178.74h-3.13l-7.8-8.93v8.93h-3.8v-15.42h3.15l7.8,9.21v-9.21h3.77v15.42Z"/>
    <path class="uuid-a56a9c4b-08ad-4022-9ae1-b4a31fa027e7" d="m97.85,178.74h-12.01v-15.42h11.94v3.27h-8.15v2.9h7.48v3.08h-7.48v2.9h8.22v3.27Z"/>
    <path class="uuid-a56a9c4b-08ad-4022-9ae1-b4a31fa027e7" d="m118.33,178.74h-3.68v-7.69l-4.03,7.69h-2.35l-4.05-7.73v7.73h-3.68v-15.42h3.73l5.18,9.55,5.18-9.55h3.71v15.42Z"/>
    <path class="uuid-a56a9c4b-08ad-4022-9ae1-b4a31fa027e7" d="m132.75,178.74l-1.08-2.81h-6.49l-1.08,2.81h-4.07l6.44-15.42h3.89l6.44,15.42h-4.05Zm-4.33-11.14l-1.96,5.06h3.94l-1.98-5.06Z"/>
    <path class="uuid-a56a9c4b-08ad-4022-9ae1-b4a31fa027e7" d="m153.21,178.74h-3.13l-7.8-8.93v8.93h-3.8v-15.42h3.15l7.8,9.21v-9.21h3.77v15.42Z"/>
    <path class="uuid-a56a9c4b-08ad-4022-9ae1-b4a31fa027e7" d="m170.98,178.74h-3.13l-7.8-8.93v8.93h-3.8v-15.42h3.15l7.8,9.21v-9.21h3.77v15.42Z"/>
  </g>
</svg>
